<?xml version="1.0" standalone="no"?>
<!DOCTYPE svg PUBLIC "-//W3C//DTD SVG 20010904//EN"
 "http://www.w3.org/TR/2001/REC-SVG-20010904/DTD/svg10.dtd">
<svg version="1.0" xmlns="http://www.w3.org/2000/svg"
 width="1024.000000pt" height="1024.000000pt" viewBox="0 0 1024.000000 1024.000000"
 preserveAspectRatio="xMidYMid meet">
<metadata>
Created by potrace 1.11, written by Peter Selinger 2001-2013
</metadata>
<g transform="translate(0.000000,1024.000000) scale(0.100000,-0.100000)"
fill="#000000" stroke="none">
<path d="M0 5120 l0 -5120 5120 0 5120 0 0 5120 0 5120 -5120 0 -5120 0 0
-5120z m5218 4285 c127 -30 244 -108 393 -262 127 -131 195 -221 397 -523 156
-232 170 -256 154 -268 -23 -19 -203 -109 -342 -172 -503 -229 -792 -241
-1277 -54 -143 55 -510 217 -525 232 -4 4 30 59 75 123 45 64 120 172 167 240
140 203 227 315 323 415 228 239 419 320 635 269z m-1203 -1423 c44 -16 150
-63 235 -105 827 -398 787 -381 851 -385 84 -6 136 13 449 169 681 338 720
354 877 347 118 -5 169 -25 243 -94 93 -87 108 -126 185 -479 19 -88 51 -230
70 -315 20 -85 49 -218 65 -295 38 -186 60 -242 123 -312 67 -73 120 -106 308
-191 180 -82 511 -238 654 -308 160 -79 241 -171 280 -319 19 -73 19 -124 1
-192 -23 -86 -50 -130 -178 -293 -390 -494 -569 -729 -595 -779 -50 -100 -47
-142 46 -557 44 -199 92 -408 108 -465 23 -88 27 -124 28 -239 0 -125 -2 -139
-26 -191 -49 -104 -136 -178 -255 -218 -118 -39 -209 -43 -654 -30 -470 14
-532 10 -639 -42 -93 -46 -157 -116 -446 -489 -304 -391 -360 -451 -470 -506
-78 -38 -81 -39 -190 -38 -130 1 -197 22 -268 84 -47 42 -429 514 -536 663
-135 189 -224 257 -357 277 -39 5 -298 10 -589 10 -434 0 -531 3 -580 15 -193
50 -310 173 -335 354 -15 110 0 226 75 556 37 160 77 346 90 415 40 208 30
371 -30 490 -24 47 -380 475 -556 667 -127 139 -171 221 -190 352 -18 126 21
240 113 331 70 69 165 126 364 219 397 185 657 312 709 346 70 47 129 115 155
180 11 28 43 160 70 295 28 135 64 306 80 380 16 74 42 203 60 285 36 173 70
254 134 323 84 89 182 124 336 118 86 -3 119 -9 185 -34z m-949 -89 c-3 -10
-8 -36 -12 -58 -11 -67 -72 -335 -98 -425 -153 -547 -377 -790 -1026 -1115
-93 -47 -172 -85 -174 -85 -2 0 -6 12 -9 28 -4 15 -24 104 -46 198 -132 561
-142 904 -34 1107 40 76 145 176 228 219 142 73 297 107 645 141 19 2 147 5
283 5 232 2 248 1 243 -15z m4744 -7 c228 -32 352 -66 475 -129 138 -72 226
-181 271 -337 16 -54 19 -97 18 -255 0 -207 -14 -312 -79 -615 -69 -317 -67
-312 -93 -305 -34 9 -355 164 -442 215 -499 289 -653 530 -805 1265 -19 94
-35 174 -35 179 0 14 561 0 690 -18z m902 -2753 c707 -928 688 -1256 -97
-1702 -143 -82 -485 -254 -492 -248 -14 14 -95 421 -114 572 -15 120 -15 342
0 438 30 190 128 397 299 632 87 120 315 405 323 405 4 0 40 -44 81 -97z
m-7065 -30 c343 -414 482 -661 524 -933 17 -109 6 -414 -21 -570 -32 -194 -81
-434 -90 -444 -5 -4 -100 37 -212 93 -932 462 -1085 777 -691 1426 92 151 375
535 394 535 4 0 47 -48 96 -107z m5843 -2690 c0 -27 -110 -423 -156 -560 -121
-363 -242 -550 -413 -641 -230 -123 -534 -63 -1188 235 -68 31 -123 61 -123
67 0 21 274 341 395 461 344 341 629 439 1283 444 111 0 202 -2 202 -6z
m-4408 -43 c352 -17 571 -64 758 -161 138 -72 216 -133 390 -308 138 -138 379
-416 369 -425 -2 -2 -74 -35 -159 -74 -517 -232 -807 -308 -1027 -269 -312 56
-487 328 -664 1028 -27 107 -49 201 -49 207 0 15 108 15 382 2z"/>
<path d="M4190 7383 c-52 -54 -167 -171 -254 -261 l-160 -162 216 -218 c220
-221 362 -378 394 -438 l18 -33 -64 -58 c-344 -310 -548 -670 -631 -1113 -20
-108 -24 -155 -23 -350 0 -189 3 -245 22 -350 48 -266 127 -497 246 -726 200
-383 475 -628 809 -720 77 -22 271 -29 364 -14 298 47 634 251 878 530 233
267 396 599 457 930 29 155 31 438 5 590 -35 203 -126 499 -232 745 -106 249
-403 805 -430 805 -18 0 -327 -271 -455 -400 -325 -324 -411 -532 -397 -953 5
-150 10 -190 40 -312 75 -304 86 -342 177 -588 109 -299 191 -641 212 -894 7
-73 9 -135 7 -138 -11 -11 -115 -25 -183 -25 -205 1 -441 124 -648 338 -121
126 -198 237 -288 417 -153 303 -230 615 -261 1050 -28 408 28 689 187 933 65
99 167 204 341 350 194 164 308 294 377 430 l27 54 -36 44 c-74 90 -602 634
-615 634 -3 0 -49 -44 -100 -97z m1316 -1350 c184 -170 498 -831 614 -1293 68
-270 62 -614 -13 -835 -45 -131 -134 -286 -230 -400 -59 -71 -178 -188 -184
-182 -2 3 1 33 7 68 5 35 10 129 10 209 0 322 -67 597 -310 1265 -95 260 -121
382 -127 595 -5 195 8 288 69 479 41 130 42 131 86 131 29 0 46 -8 78 -37z"/>
</g>
</svg>
